# xmcd
# 
# Track frame offsets:
#     150
#     18142
#     40892
#     62877
#     81727
#     99435
#     118937
#     141750
#     159945
#     178497
#     195337
#     217730
#     237195
#     256590
#     275240
#     295955
# 
# Disc length: 4249
# 
# Revision: 2
# Processed by: cddbd v1.5.2PL0 Copyright (c) Steve Scherf et al.
# Submitted via: BonkEnc v1.0.8
# 
DISCID=e7109710
DTITLE=KOJI KIKKAWA - DON'T STOP ME NOW
DYEAR=1997
DGENRE=Rock
TTITLE0=Virgin Moon
TTITLE1=Black Corvette
TTITLE2=せつなさを殺せない
TTITLE3=ジェラシーを微笑みにかえて
TTITLE4=Brain SUGAR(Mad Blade Mix)
TTITLE5=KISSに撃たれて眠りたい
TTITLE6=Purple Pain
TTITLE7=VENUS 迷い子の未来
TTITLE8=Rambling Rose
TTITLE9=Stripper
TTITLE10=BOY'S LIFE
TTITLE11=BOMBERS
TTITLE12=アクセル
TTITLE13=SPEED
TTITLE14=SHADOW BEAT
TTITLE15=FOREVER ROAD
EXTD=YEAR: 1997
EXTT0=
EXTT1=
EXTT2=
EXTT3=
EXTT4=
EXTT5=
EXTT6=
EXTT7=
EXTT8=
EXTT9=
EXTT10=
EXTT11=
EXTT12=
EXTT13=
EXTT14=
EXTT15=
PLAYORDER=
